<svg width="96" height="96" viewBox="0 0 96 96" fill="none" xmlns="http://www.w3.org/2000/svg">
<path d="M2.47865 93.5245C2.29008 93.3343 2.23475 93.2363 2.2041 93.1684C2.1667 93.0856 2.10823 92.9151 2.06581 92.5134C1.99344 91.8282 1.99709 90.8875 2.00328 89.295C2.0053 88.7748 2.00759 88.1851 2.00759 87.5121C2.00759 65.9162 6.67369 51.6816 13.7622 41.9647C20.8476 32.2521 30.5272 26.8133 41.0374 23.1385C46.2988 21.2989 51.7387 19.9115 57.1458 18.6461C58.714 18.2792 60.2851 17.9212 61.8488 17.565C65.6397 16.7014 69.3863 15.8479 72.9371 14.9002C80.9804 12.7535 88.4842 10.0182 93.9872 5.1329C93.8797 20.5759 92.8718 41.2668 83.423 58.807C78.1824 68.5355 70.3388 77.2961 58.5474 83.643C46.7379 89.9995 30.8579 93.9935 9.47032 93.9935C8.99624 93.9935 8.54645 93.9952 8.11924 93.9969C6.57938 94.0029 5.3327 94.0077 4.29781 93.9257C3.65258 93.8746 3.1925 93.7954 2.87024 93.6978C2.5688 93.6066 2.48134 93.527 2.47865 93.5245Z" fill="url(#paint0_linear)" stroke="white" stroke-width="4"/>
<path d="M42.048 37.6C42.048 35.3909 43.8709 33.6 46.08 33.6V33.6C48.2891 33.6 50.112 35.3909 50.112 37.6V69.92C50.112 72.1291 48.2891 73.92 46.08 73.92V73.92C43.8709 73.92 42.048 72.1291 42.048 69.92V37.6Z" fill="white"/>
<path d="M29.92 57.792C27.7109 57.792 25.92 55.9691 25.92 53.76V53.76C25.92 51.5509 27.7109 49.728 29.92 49.728H62.24C64.4491 49.728 66.24 51.5509 66.24 53.76V53.76C66.24 55.9691 64.4491 57.792 62.24 57.792H29.92Z" fill="white"/>
<defs>
<linearGradient id="paint0_linear" x1="-2.04414e-06" y1="96" x2="96" y2="-7.52776e-06" gradientUnits="userSpaceOnUse">
<stop offset="0.234375" stop-color="#0076D6"/>
<stop offset="0.765203" stop-color="#4CAFFF"/>
</linearGradient>
</defs>
</svg>
